<svg width="25" height="25" viewBox="0 0 25 25" fill="none" xmlns="http://www.w3.org/2000/svg">
<g id="arrow_back_ios_new_FILL0_wght400_GRAD0_opsz48 1">
<path id="Vector" d="M16.3281 22.1875L7.1875 13.0469C7.10069 12.9601 7.03993 12.8733 7.00521 12.7864C6.97049 12.6996 6.95312 12.6042 6.95312 12.5C6.95312 12.3958 6.97049 12.3003 7.00521 12.2135C7.03993 12.1267 7.10069 12.0399 7.1875 11.9531L16.3281 2.81249C16.5191 2.62152 16.7622 2.52603 17.0573 2.52603C17.3524 2.52603 17.5955 2.62152 17.7865 2.81249C17.9948 3.02082 18.099 3.26822 18.099 3.55468C18.099 3.84114 17.9948 4.08853 17.7865 4.29686L9.58333 12.5L17.7865 20.7031C18.0122 20.9288 18.1163 21.1805 18.099 21.4583C18.0816 21.7361 17.9774 21.9705 17.7865 22.1614C17.5781 22.3698 17.3307 22.4739 17.0443 22.4739C16.7578 22.4739 16.5191 22.3785 16.3281 22.1875Z" fill="#909090"/>
</g>
</svg>
