<svg width="25" height="25" viewBox="0 0 25 25" fill="none" xmlns="http://www.w3.org/2000/svg">
<g id="event_FILL1_wght400_GRAD0_opsz48 1">
<path id="Vector" d="M15.4171 19.1875C14.7085 19.1875 14.1111 18.9429 13.625 18.4536C13.1389 17.9643 12.8958 17.3653 12.8958 16.6567C12.8958 15.9481 13.1405 15.3507 13.6298 14.8646C14.1191 14.3785 14.718 14.1354 15.4266 14.1354C16.1353 14.1354 16.7326 14.3801 17.2188 14.8693C17.7049 15.3586 17.9479 15.9576 17.9479 16.6662C17.9479 17.3749 17.7033 17.9722 17.214 18.4583C16.7247 18.9444 16.1257 19.1875 15.4171 19.1875ZM4.5625 22.8333C4.14583 22.8333 3.78125 22.6771 3.46875 22.3646C3.15625 22.0521 3 21.6875 3 21.2708V5.125C3 4.70833 3.15625 4.34375 3.46875 4.03125C3.78125 3.71875 4.14583 3.5625 4.5625 3.5625H6.25521V2.83333C6.25521 2.59722 6.33507 2.39931 6.49479 2.23958C6.65451 2.07986 6.85243 2 7.08854 2C7.33203 2 7.53614 2.07986 7.70086 2.23958C7.86556 2.39931 7.94792 2.59722 7.94792 2.83333V3.5625H16.8021V2.83333C16.8021 2.59722 16.8819 2.39931 17.0417 2.23958C17.2014 2.07986 17.3993 2 17.6354 2C17.8789 2 18.083 2.07986 18.2477 2.23958C18.4124 2.39931 18.4948 2.59722 18.4948 2.83333V3.5625H20.1875C20.6042 3.5625 20.9688 3.71875 21.2812 4.03125C21.5938 4.34375 21.75 4.70833 21.75 5.125V21.2708C21.75 21.6875 21.5938 22.0521 21.2812 22.3646C20.9688 22.6771 20.6042 22.8333 20.1875 22.8333H4.5625ZM4.5625 21.2708H20.1875V10.0729H4.5625V21.2708Z" fill="#909090"/>
</g>
</svg>
