<svg width="25" height="25" viewBox="0 0 25 25" fill="none" xmlns="http://www.w3.org/2000/svg">
<g id="group_FILL1_wght400_GRAD0_opsz48 1">
<path id="Vector" d="M1.77081 20.8333C1.54512 20.8333 1.35849 20.7596 1.21092 20.612C1.06335 20.4644 0.989563 20.2778 0.989563 20.0521V18.3854C0.989563 17.7778 1.14581 17.2266 1.45831 16.7318C1.77081 16.237 2.20484 15.8681 2.7604 15.625C4.02776 15.0694 5.16925 14.6701 6.18488 14.4271C7.2005 14.184 8.24651 14.0625 9.3229 14.0625C10.3993 14.0625 11.441 14.184 12.4479 14.4271C13.4548 14.6701 14.592 15.0694 15.8594 15.625C16.4149 15.8681 16.8533 16.237 17.1745 16.7318C17.4956 17.2266 17.6562 17.7778 17.6562 18.3854V20.0521C17.6562 20.2778 17.5824 20.4644 17.4349 20.612C17.2873 20.7596 17.1007 20.8333 16.875 20.8333H1.77081ZM18.6458 20.8333C18.8194 20.7986 18.9583 20.7075 19.0625 20.5599C19.1666 20.4123 19.2187 20.2257 19.2187 20V18.3854C19.2187 17.2917 18.941 16.3932 18.3854 15.6901C17.8298 14.987 17.1007 14.4184 16.1979 13.9844C17.3958 14.1233 18.5243 14.3273 19.5833 14.5964C20.6423 14.8655 21.5017 15.1736 22.1614 15.5208C22.7344 15.8507 23.1857 16.2587 23.5156 16.7448C23.8455 17.2309 24.0104 17.7778 24.0104 18.3854V20.0521C24.0104 20.2778 23.9366 20.4644 23.789 20.612C23.6415 20.7596 23.4548 20.8333 23.2291 20.8333H18.6458ZM9.3229 12.474C8.17706 12.474 7.23956 12.1094 6.5104 11.3802C5.78123 10.651 5.41665 9.71354 5.41665 8.56771C5.41665 7.42188 5.78123 6.48438 6.5104 5.75521C7.23956 5.02604 8.17706 4.66146 9.3229 4.66146C10.4687 4.66146 11.4062 5.02604 12.1354 5.75521C12.8646 6.48438 13.2291 7.42188 13.2291 8.56771C13.2291 9.71354 12.8646 10.651 12.1354 11.3802C11.4062 12.1094 10.4687 12.474 9.3229 12.474ZM18.6979 8.56771C18.6979 9.71354 18.3333 10.651 17.6041 11.3802C16.875 12.1094 15.9375 12.474 14.7916 12.474C14.6007 12.474 14.388 12.4609 14.1536 12.4349C13.9193 12.4089 13.7066 12.3611 13.5156 12.2917C13.9323 11.8576 14.2491 11.3238 14.4661 10.6901C14.6831 10.0564 14.7916 9.34896 14.7916 8.56771C14.7916 7.78646 14.6831 7.09636 14.4661 6.4974C14.2491 5.89844 13.9323 5.34722 13.5156 4.84375C13.7066 4.79167 13.9193 4.74827 14.1536 4.71354C14.388 4.67882 14.6007 4.66146 14.7916 4.66146C15.9375 4.66146 16.875 5.02604 17.6041 5.75521C18.3333 6.48438 18.6979 7.42188 18.6979 8.56771Z" fill="#909090"/>
</g>
</svg>
