<svg width="25" height="25" viewBox="0 0 25 25" fill="none" xmlns="http://www.w3.org/2000/svg">
<g id="cancel_FILL0_wght400_GRAD0_opsz48 1">
<path id="Vector" d="M12.5 13.5938L15.8594 16.9531C16.0157 17.1094 16.198 17.1875 16.4063 17.1875C16.6146 17.1875 16.7969 17.1094 16.9532 16.9531C17.1094 16.7969 17.1875 16.6146 17.1875 16.4063C17.1875 16.1979 17.1094 16.0156 16.9532 15.8594L13.5938 12.5L16.9532 9.14063C17.1094 8.98438 17.1875 8.80209 17.1875 8.59376C17.1875 8.38543 17.1094 8.20313 16.9532 8.04688C16.7969 7.89063 16.6146 7.81251 16.4063 7.81251C16.198 7.81251 16.0157 7.89063 15.8594 8.04688L12.5 11.4063L9.14067 8.04688C8.98442 7.89063 8.80212 7.81251 8.59379 7.81251C8.38546 7.81251 8.20317 7.89063 8.04692 8.04688C7.89067 8.20313 7.81254 8.38543 7.81254 8.59376C7.81254 8.80209 7.89067 8.98438 8.04692 9.14063L11.4063 12.5L8.04692 15.8594C7.89067 16.0156 7.81254 16.1979 7.81254 16.4063C7.81254 16.6146 7.89067 16.7969 8.04692 16.9531C8.20317 17.1094 8.38546 17.1875 8.59379 17.1875C8.80212 17.1875 8.98442 17.1094 9.14067 16.9531L12.5 13.5938ZM12.5 22.9167C11.0764 22.9167 9.73094 22.6432 8.46358 22.0964C7.19622 21.5495 6.08945 20.803 5.14327 19.8568C4.19709 18.9106 3.45056 17.8038 2.90369 16.5365C2.35681 15.2691 2.08337 13.9236 2.08337 12.5C2.08337 11.059 2.35681 9.70487 2.90369 8.43751C3.45056 7.17015 4.19709 6.06772 5.14327 5.13022C6.08945 4.19272 7.19622 3.45053 8.46358 2.90366C9.73094 2.35678 11.0764 2.08334 12.5 2.08334C13.941 2.08334 15.2952 2.35678 16.5625 2.90366C17.8299 3.45053 18.9323 4.19272 19.8698 5.13022C20.8073 6.06772 21.5495 7.17015 22.0964 8.43751C22.6433 9.70487 22.9167 11.059 22.9167 12.5C22.9167 13.9236 22.6433 15.2691 22.0964 16.5365C21.5495 17.8038 20.8073 18.9106 19.8698 19.8568C18.9323 20.803 17.8299 21.5495 16.5625 22.0964C15.2952 22.6432 13.941 22.9167 12.5 22.9167ZM12.5 21.3542C14.9653 21.3542 17.0573 20.4905 18.7761 18.763C20.4948 17.0356 21.3542 14.9479 21.3542 12.5C21.3542 10.0347 20.4948 7.94272 18.7761 6.22397C17.0573 4.50522 14.9653 3.64584 12.5 3.64584C10.0521 3.64584 7.96445 4.50522 6.23702 6.22397C4.50959 7.94272 3.64587 10.0347 3.64587 12.5C3.64587 14.9479 4.50959 17.0356 6.23702 18.763C7.96445 20.4905 10.0521 21.3542 12.5 21.3542Z" fill="#909090"/>
</g>
</svg>
