<svg width="25" height="25" viewBox="0 0 25 25" fill="none" xmlns="http://www.w3.org/2000/svg">
<g id="description_FILL1_wght400_GRAD0_opsz48 1">
<path id="Vector" d="M9.08856 18.4896H15.9115C16.1328 18.4896 16.3184 18.4143 16.4681 18.2637C16.6179 18.113 16.6927 17.9264 16.6927 17.7038C16.6927 17.4811 16.6179 17.296 16.4681 17.1484C16.3184 17.0009 16.1328 16.9271 15.9115 16.9271H9.08856C8.86721 16.9271 8.68166 17.0024 8.53192 17.153C8.38218 17.3036 8.30731 17.4902 8.30731 17.7129C8.30731 17.9355 8.38218 18.1207 8.53192 18.2682C8.68166 18.4158 8.86721 18.4896 9.08856 18.4896ZM9.08856 14.0625H15.9115C16.1328 14.0625 16.3184 13.9872 16.4681 13.8366C16.6179 13.686 16.6927 13.4993 16.6927 13.2767C16.6927 13.054 16.6179 12.8689 16.4681 12.7213C16.3184 12.5738 16.1328 12.5 15.9115 12.5H9.08856C8.86721 12.5 8.68166 12.5753 8.53192 12.7259C8.38218 12.8765 8.30731 13.0632 8.30731 13.2858C8.30731 13.5085 8.38218 13.6936 8.53192 13.8411C8.68166 13.9887 8.86721 14.0625 9.08856 14.0625ZM5.72919 22.9167C5.31252 22.9167 4.94794 22.7604 4.63544 22.4479C4.32294 22.1354 4.16669 21.7708 4.16669 21.3542V3.64583C4.16669 3.22916 4.32294 2.86458 4.63544 2.55208C4.94794 2.23958 5.31252 2.08333 5.72919 2.08333H14.4792C14.6952 2.08333 14.9011 2.12673 15.0969 2.21354C15.2927 2.30034 15.4601 2.41319 15.599 2.55208L20.3646 7.3177C20.5035 7.45659 20.6163 7.62394 20.7031 7.81974C20.79 8.01553 20.8334 8.22145 20.8334 8.4375V21.3542C20.8334 21.7708 20.6771 22.1354 20.3646 22.4479C20.0521 22.7604 19.6875 22.9167 19.2709 22.9167H5.72919ZM14.349 7.70833C14.349 7.92968 14.4238 8.11523 14.5736 8.26497C14.7233 8.41471 14.9089 8.48958 15.1302 8.48958H19.2709L14.349 3.64583V7.70833Z" fill="#909090"/>
</g>
</svg>
