<svg width="14" height="13" viewBox="0 0 14 13" fill="none" xmlns="http://www.w3.org/2000/svg">
<path id="Star 1" d="M6.34555 1.6765C6.54001 1.35438 7.00718 1.35438 7.20164 1.6765L8.63346 4.04826C8.84883 4.40502 9.20291 4.65611 9.61084 4.74133L12.3342 5.31032C12.7148 5.38983 12.863 5.85423 12.5988 6.13949L10.7811 8.10218C10.4874 8.4194 10.3448 8.84796 10.3899 9.27796L10.6683 11.9306C10.708 12.3097 10.3261 12.5921 9.97536 12.4429L7.36049 11.3312C6.98547 11.1718 6.56172 11.1718 6.1867 11.3312L3.57183 12.4429C3.22109 12.5921 2.83915 12.3097 2.87893 11.9306L3.1573 9.27796C3.20243 8.84796 3.05982 8.4194 2.76603 8.10218L0.948356 6.13949C0.684173 5.85423 0.832366 5.38983 1.21295 5.31032L3.93635 4.74133C4.34427 4.65611 4.69835 4.40502 4.91373 4.04826L6.34555 1.6765Z" fill="#FAFF00" stroke="#E5EA00"/>
</svg>
