<svg width="25" height="25" viewBox="0 0 25 25" fill="none" xmlns="http://www.w3.org/2000/svg">
<g id="person_FILL1_wght400_GRAD0_opsz48 (1) 1">
<path id="Vector" d="M12.5 12.474C11.3542 12.474 10.4167 12.1094 9.68752 11.3802C8.95835 10.651 8.59377 9.71354 8.59377 8.56771C8.59377 7.42188 8.95835 6.48438 9.68752 5.75521C10.4167 5.02604 11.3542 4.66146 12.5 4.66146C13.6459 4.66146 14.5834 5.02604 15.3125 5.75521C16.0417 6.48438 16.4063 7.42188 16.4063 8.56771C16.4063 9.71354 16.0417 10.651 15.3125 11.3802C14.5834 12.1094 13.6459 12.474 12.5 12.474ZM5.72919 20.8333C5.29516 20.8333 4.92624 20.6814 4.62242 20.3776C4.3186 20.0738 4.16669 19.7049 4.16669 19.2708V18.3854C4.16669 17.7257 4.33162 17.1615 4.66148 16.6927C4.99134 16.224 5.41669 15.8681 5.93752 15.625C7.10071 15.1042 8.21617 14.7135 9.28387 14.4531C10.3516 14.1927 11.4236 14.0625 12.5 14.0625C13.5764 14.0625 14.6441 14.1971 15.7031 14.4661C16.7622 14.7352 17.8733 15.1215 19.0365 15.625C19.5747 15.8681 20.0087 16.224 20.3386 16.6927C20.6684 17.1615 20.8334 17.7257 20.8334 18.3854V19.2708C20.8334 19.7049 20.6814 20.0738 20.3776 20.3776C20.0738 20.6814 19.7049 20.8333 19.2709 20.8333H5.72919Z" fill="white"/>
</g>
</svg>
