<svg width="25" height="22" viewBox="0 0 25 22" fill="none" xmlns="http://www.w3.org/2000/svg">
<path id="Vector" d="M0.9375 22C0.671875 22 0.449219 21.9122 0.269531 21.7365C0.0898438 21.5608 0 21.3431 0 21.0833V8.25C0 7.99028 0.0898438 7.77257 0.269531 7.59688C0.449219 7.42118 0.671875 7.33333 0.9375 7.33333H5.3125C5.57812 7.33333 5.80078 7.42118 5.98047 7.59688C6.16016 7.77257 6.25 7.99028 6.25 8.25V21.0833C6.25 21.3431 6.16016 21.5608 5.98047 21.7365C5.80078 21.9122 5.57812 22 5.3125 22H0.9375ZM10.3125 22C10.0469 22 9.82422 21.9122 9.64453 21.7365C9.46484 21.5608 9.375 21.3431 9.375 21.0833V0.916667C9.375 0.656944 9.46484 0.439236 9.64453 0.263542C9.82422 0.0878472 10.0469 0 10.3125 0H14.6875C14.9531 0 15.1758 0.0878472 15.3555 0.263542C15.5352 0.439236 15.625 0.656944 15.625 0.916667V21.0833C15.625 21.3431 15.5352 21.5608 15.3555 21.7365C15.1758 21.9122 14.9531 22 14.6875 22H10.3125ZM19.6875 22C19.4219 22 19.1992 21.9122 19.0195 21.7365C18.8398 21.5608 18.75 21.3431 18.75 21.0833V10.6944C18.75 10.4347 18.8398 10.217 19.0195 10.0413C19.1992 9.86563 19.4219 9.77778 19.6875 9.77778H24.0625C24.3281 9.77778 24.5508 9.86563 24.7305 10.0413C24.9102 10.217 25 10.4347 25 10.6944V21.0833C25 21.3431 24.9102 21.5608 24.7305 21.7365C24.5508 21.9122 24.3281 22 24.0625 22H19.6875Z" fill="#909090"/>
</svg>
