<svg width="25" height="25" viewBox="0 0 25 25" fill="none" xmlns="http://www.w3.org/2000/svg">
<g id="window_FILL1_wght400_GRAD0_opsz48 1">
<path id="Vector" d="M13.1562 15.8979C13.1562 14.7778 13.1562 14.2178 13.3742 13.7899C13.566 13.4136 13.8719 13.1076 14.2483 12.9159C14.6761 12.6979 15.2361 12.6979 16.3562 12.6979H18.55C19.6701 12.6979 20.2302 12.6979 20.658 12.9159C21.0343 13.1076 21.3403 13.4136 21.532 13.7899C21.75 14.2178 21.75 14.7778 21.75 15.8979V20.1042C21.75 20.5568 21.597 20.9442 21.291 21.2665C20.985 21.5888 20.6172 21.75 20.1875 21.75H16.3562C15.2361 21.75 14.6761 21.75 14.2483 21.532C13.8719 21.3403 13.566 21.0343 13.3742 20.658C13.1562 20.2302 13.1562 19.6701 13.1562 18.55V15.8979ZM16.3562 11.0521C15.2361 11.0521 14.6761 11.0521 14.2483 10.8341C13.8719 10.6423 13.566 10.3364 13.3742 9.96006C13.1562 9.53224 13.1562 8.97219 13.1562 7.85208V5.2C13.1562 4.07989 13.1562 3.51984 13.3742 3.09202C13.566 2.71569 13.8719 2.40973 14.2483 2.21799C14.6761 2 15.2361 2 16.3562 2H20.1875C20.6172 2 20.985 2.16115 21.291 2.48346C21.597 2.80577 21.75 3.19323 21.75 3.64583V7.85208C21.75 8.97219 21.75 9.53224 21.532 9.96006C21.3403 10.3364 21.0343 10.6423 20.658 10.8341C20.2302 11.0521 19.6701 11.0521 18.55 11.0521H16.3562ZM11.5938 7.85208C11.5938 8.97219 11.5938 9.53224 11.3758 9.96006C11.184 10.3364 10.8781 10.6423 10.5017 10.8341C10.0739 11.0521 9.51385 11.0521 8.39375 11.0521H6.2C5.0799 11.0521 4.51984 11.0521 4.09202 10.8341C3.71569 10.6423 3.40973 10.3364 3.21799 9.96006C3 9.53224 3 8.97219 3 7.85208V3.64583C3 3.19323 3.15299 2.80577 3.45898 2.48346C3.76497 2.16115 4.13281 2 4.5625 2H8.39375C9.51385 2 10.0739 2 10.5017 2.21799C10.8781 2.40973 11.184 2.71569 11.3758 3.09202C11.5938 3.51984 11.5938 4.07989 11.5938 5.2V7.85208ZM8.39375 12.6979C9.51385 12.6979 10.0739 12.6979 10.5017 12.9159C10.8781 13.1076 11.184 13.4136 11.3758 13.7899C11.5938 14.2178 11.5938 14.7778 11.5938 15.8979V18.55C11.5938 19.6701 11.5938 20.2302 11.3758 20.658C11.184 21.0343 10.8781 21.3403 10.5017 21.532C10.0739 21.75 9.51385 21.75 8.39375 21.75H4.5625C4.13281 21.75 3.76497 21.5888 3.45898 21.2665C3.15299 20.9442 3 20.5568 3 20.1042V15.8979C3 14.7778 3 14.2178 3.21799 13.7899C3.40973 13.4136 3.71569 13.1076 4.09202 12.9159C4.51984 12.6979 5.0799 12.6979 6.2 12.6979H8.39375Z" fill="#909090"/>
</g>
</svg>
