<svg width="25" height="25" viewBox="0 0 25 25" fill="none" xmlns="http://www.w3.org/2000/svg">
<g id="chat_FILL1_wght400_GRAD0_opsz48 1">
<path id="Vector" d="M6.94792 14.526H13.5625C13.7708 14.526 13.9488 14.4523 14.0964 14.3047C14.2439 14.1571 14.3177 13.9705 14.3177 13.7448C14.3177 13.5191 14.2439 13.3325 14.0964 13.1849C13.9488 13.0373 13.7622 12.9635 13.5365 12.9635H6.92188C6.71354 12.9635 6.53559 13.0373 6.38802 13.1849C6.24045 13.3325 6.16667 13.5191 6.16667 13.7448C6.16667 13.9705 6.24045 14.1571 6.38802 14.3047C6.53559 14.4523 6.72222 14.526 6.94792 14.526ZM6.94792 11.1406H17.9115C18.1198 11.1406 18.2977 11.0668 18.4453 10.9193C18.5929 10.7717 18.6667 10.5851 18.6667 10.3594C18.6667 10.1337 18.5929 9.94705 18.4453 9.79948C18.2977 9.65191 18.1111 9.57813 17.8854 9.57813H6.92188C6.71354 9.57813 6.53559 9.65191 6.38802 9.79948C6.24045 9.94705 6.16667 10.1337 6.16667 10.3594C6.16667 10.5851 6.24045 10.7717 6.38802 10.9193C6.53559 11.0668 6.72222 11.1406 6.94792 11.1406ZM6.94792 7.75521H17.9115C18.1198 7.75521 18.2977 7.68142 18.4453 7.53385C18.5929 7.38628 18.6667 7.19965 18.6667 6.97396C18.6667 6.74826 18.5929 6.56163 18.4453 6.41406C18.2977 6.26649 18.1111 6.19271 17.8854 6.19271H6.92188C6.71354 6.19271 6.53559 6.26649 6.38802 6.41406C6.24045 6.56163 6.16667 6.74826 6.16667 6.97396C6.16667 7.19965 6.24045 7.38628 6.38802 7.53385C6.53559 7.68142 6.72222 7.75521 6.94792 7.75521ZM2 20.9583V3.5625C2 3.16319 2.15625 2.80295 2.46875 2.48177C2.78125 2.16059 3.14583 2 3.5625 2H21.2708C21.6701 2 22.0304 2.16059 22.3516 2.48177C22.6727 2.80295 22.8333 3.16319 22.8333 3.5625V17.1042C22.8333 17.5035 22.6727 17.8637 22.3516 18.1849C22.0304 18.5061 21.6701 18.6667 21.2708 18.6667H6.16667L3.32813 21.5052C3.08507 21.7483 2.80295 21.8047 2.48177 21.6745C2.16059 21.5443 2 21.3056 2 20.9583Z" fill="#909090"/>
</g>
</svg>
