<svg width="30" height="30" viewBox="0 0 30 30" fill="none" xmlns="http://www.w3.org/2000/svg">
<g id="notifications_FILL0_wght400_GRAD0_opsz48 1">
<path id="Vector" d="M5.9375 23.75C5.67188 23.75 5.44922 23.6596 5.26953 23.4789C5.08984 23.2982 5 23.0742 5 22.807C5 22.5398 5.08984 22.3177 5.26953 22.1406C5.44922 21.9635 5.67188 21.875 5.9375 21.875H7.625V12.3125C7.625 10.6042 8.14062 9.05729 9.17188 7.67188C10.2031 6.28646 11.5625 5.41667 13.25 5.0625V4.15625C13.25 3.67708 13.4194 3.28125 13.7583 2.96875C14.0971 2.65625 14.5086 2.5 14.9927 2.5C15.4767 2.5 15.8906 2.65625 16.2344 2.96875C16.5781 3.28125 16.75 3.67708 16.75 4.15625V5.0625C18.4375 5.41667 19.8021 6.28646 20.8438 7.67188C21.8854 9.05729 22.4062 10.6042 22.4062 12.3125V21.875H24.0625C24.3281 21.875 24.5508 21.9654 24.7305 22.1461C24.9102 22.3268 25 22.5508 25 22.818C25 23.0852 24.9102 23.3073 24.7305 23.4844C24.5508 23.6615 24.3281 23.75 24.0625 23.75H5.9375ZM15 27.5C14.3333 27.5 13.75 27.2552 13.25 26.7656C12.75 26.276 12.5 25.6875 12.5 25H17.5C17.5 25.6875 17.2552 26.276 16.7656 26.7656C16.276 27.2552 15.6875 27.5 15 27.5ZM9.5 21.875H20.5312V12.3125C20.5312 10.75 20.0052 9.43229 18.9531 8.35938C17.901 7.28646 16.599 6.75 15.0469 6.75C13.4948 6.75 12.1823 7.28646 11.1094 8.35938C10.0365 9.43229 9.5 10.75 9.5 12.3125V21.875Z" fill="#909090"/>
<circle id="Ellipse 4" cx="21.5" cy="8.5" r="3.5" fill="#00B75A"/>
</g>
</svg>
