<svg width="25" height="25" viewBox="0 0 25 25" fill="none" xmlns="http://www.w3.org/2000/svg">
<g id="desktop_windows_FILL1_wght400_GRAD0_opsz48 1">
<path id="Vector" d="M9.50521 22.9167C9.28385 22.9167 9.09831 22.8414 8.94857 22.6908C8.79883 22.5401 8.72396 22.3535 8.72396 22.1309C8.72396 21.9082 8.79883 21.7231 8.94857 21.5755C9.09831 21.428 9.28385 21.3542 9.50521 21.3542H10.9635V18.75H3.67188C3.24219 18.75 2.87435 18.597 2.56836 18.291C2.26237 17.985 2.10938 17.6172 2.10938 17.1875V4.6875C2.10938 4.25781 2.26237 3.88997 2.56836 3.58398C2.87435 3.27799 3.24219 3.125 3.67188 3.125H21.3802C21.8099 3.125 22.1777 3.27799 22.4837 3.58398C22.7897 3.88997 22.9427 4.25781 22.9427 4.6875V17.1875C22.9427 17.6172 22.7897 17.985 22.4837 18.291C22.1777 18.597 21.8099 18.75 21.3802 18.75H14.0885V21.3542H15.5469C15.7682 21.3542 15.9538 21.4295 16.1035 21.5801C16.2533 21.7307 16.3281 21.9173 16.3281 22.14C16.3281 22.3626 16.2533 22.5477 16.1035 22.6953C15.9538 22.8429 15.7682 22.9167 15.5469 22.9167H9.50521Z" fill="#909090"/>
</g>
</svg>
