<svg width="25" height="24" viewBox="0 0 25 24" fill="none" xmlns="http://www.w3.org/2000/svg">
<path id="Vector" d="M1.875 23.75C1.375 23.75 0.9375 23.5625 0.5625 23.1875C0.1875 22.8125 0 22.375 0 21.875V6.875C0 6.375 0.1875 5.9375 0.5625 5.5625C0.9375 5.1875 1.375 5 1.875 5H7.5V1.875C7.5 1.375 7.6875 0.9375 8.0625 0.5625C8.4375 0.1875 8.875 0 9.375 0H15.625C16.125 0 16.5625 0.1875 16.9375 0.5625C17.3125 0.9375 17.5 1.375 17.5 1.875V5H23.125C23.625 5 24.0625 5.1875 24.4375 5.5625C24.8125 5.9375 25 6.375 25 6.875V21.875C25 22.375 24.8125 22.8125 24.4375 23.1875C24.0625 23.5625 23.625 23.75 23.125 23.75H1.875ZM9.375 5H15.625V1.875H9.375V5Z" fill="#909090"/>
</svg>
